<svg width="761" height="589" viewBox="0 0 761 589" fill="none" xmlns="http://www.w3.org/2000/svg">
<g clip-path="url(#clip0_40_77)">
<path d="M427.6 440.7H349.4C344.8 440.7 341 436.9 341 432.3V384.4C341 379.8 344.8 376 349.4 376H427.6C432.2 376 436 379.8 436 384.4V432.3C436.1 436.9 432.3 440.7 427.6 440.7Z" fill="white" stroke="#2E2E33" stroke-miterlimit="10"/>
<path fill-rule="evenodd" clip-rule="evenodd" d="M356.006 399.889H359.347V406.935H367.757V399.889H371.098V417.275H367.757V409.972H359.347V417.275H356.006V399.889ZM357.006 400.889V416.275H358.347V408.972H368.757V416.275H370.098V400.889H368.757V407.935H358.347V400.889H357.006ZM372.638 399.889H387.192V402.926H381.574V417.275H378.256V402.926H372.638V399.889ZM373.638 400.889V401.926H379.256V416.275H380.574V401.926H386.192V400.889H373.638ZM388.741 399.889H391.446L397.993 410.921L404.451 399.889H407.157L407.181 417.275H403.934L403.914 406.648L398.772 415.285H397.128L391.989 406.713V417.275H388.741V399.889ZM389.741 400.889V416.275H390.989V403.1L397.694 414.285H398.203L404.907 403.025L404.933 416.275H406.18L406.158 400.889H405.024L397.999 412.891L390.876 400.889H389.741ZM411.098 399.889H414.439V414.238H423.311V417.275H411.098V399.889ZM412.098 400.889V416.275H422.311V415.238H413.439V400.889H412.098Z" fill="#2E2E33"/>
<path d="M561.32 15.0255C585.341 -6.57366 622.5 -4.69547 644.27 19.3453C664.538 41.8836 664.163 76.0666 644.27 98.0415L665.101 121.143C668.291 120.58 671.669 121.707 674.109 124.336L710.892 165.281C714.646 169.413 714.27 175.798 710.142 179.555C706.013 183.311 699.632 182.936 695.879 178.804L659.096 137.859C656.656 135.23 656.093 131.661 656.844 128.468L636.2 105.554C612.178 123.773 577.835 120.768 557.379 98.0415C535.421 74.0006 537.298 36.8125 561.32 15.0255ZM568.451 87.7114C584.403 105.554 611.99 106.869 629.631 90.9043C647.272 74.9397 648.774 47.3304 632.822 29.6754C616.87 11.8326 589.282 10.5179 571.642 26.4825C553.813 42.4471 552.499 70.0564 568.451 87.7114Z" fill="#EBEBF2"/>
<path d="M644.363 92.9707L636.141 100.392L687.545 157.437L695.767 150.016L644.363 92.9707Z" fill="white" stroke="#2E2E33" stroke-miterlimit="10"/>
<path d="M646.147 103.864C670.168 82.2647 672.045 44.8887 650.463 20.8479C628.881 -3.19291 591.535 -5.07109 567.513 16.5281C543.491 38.1272 541.615 75.5032 563.197 99.544C584.779 123.585 622.125 125.463 646.147 103.864ZM577.835 27.985C595.664 12.0204 623.063 13.3352 639.015 31.1779C654.967 49.0207 653.653 76.4423 635.825 92.4069C617.996 108.372 590.597 107.057 574.645 89.214C558.693 71.559 560.194 44.1375 577.835 27.985Z" fill="white" stroke="#2E2E33" stroke-miterlimit="10"/>
<path d="M716.335 181.057C720.464 177.301 720.839 170.915 717.086 166.783L680.302 125.839C676.549 121.707 670.168 121.331 666.04 125.087C661.911 128.844 661.535 135.23 665.289 139.362L702.072 180.306C705.826 184.438 712.206 184.814 716.335 181.057Z" fill="white" stroke="#2E2E33" stroke-miterlimit="10"/>
<path d="M696.066 561.015C704.699 560.076 714.457 558.573 718.774 551.061C723.466 543.172 718.962 532.279 711.455 527.02C703.948 521.761 694.377 520.446 685.181 519.507C622.499 513.497 559.255 515.187 496.948 524.766C485.313 526.456 440.46 537.725 454.348 558.949C463.168 572.284 514.965 566.837 529.603 567.213C585.341 568.528 640.891 566.462 696.066 561.015Z" fill="#EBEBF2"/>
<path d="M447.779 280.414C436.707 269.896 427.136 257.312 419.441 242.474L414.187 236.276L414.75 235.713C417.189 232.144 416.626 229.327 413.061 227.636C409.683 225.57 407.055 226.134 404.991 229.327L403.865 229.139C404.24 224.444 402.363 222.19 398.047 222.378C394.106 222.941 392.042 225.007 391.854 228.951V230.078H390.728V228.763C389.039 225.195 386.224 224.444 382.283 226.322C378.717 228.012 377.966 230.829 380.031 234.961L380.594 235.525L380.031 236.088L379.468 235.525C376.09 233.459 373.275 234.022 370.647 237.779C368.395 241.159 368.958 243.789 372.336 246.043L372.899 246.606L372.336 247.17C367.645 246.794 365.58 248.672 366.143 252.429C365.768 256.185 367.645 258.439 371.961 259.19L374.213 265.764C392.042 300.51 420.567 323.612 459.79 335.069" fill="white"/>
<path d="M447.779 280.414C436.707 269.896 427.136 257.312 419.441 242.474L414.187 236.276L414.75 235.713C417.189 232.144 416.626 229.327 413.061 227.636C409.683 225.57 407.055 226.134 404.991 229.327L403.865 229.139C404.24 224.444 402.363 222.19 398.047 222.378C394.106 222.941 392.042 225.007 391.854 228.951V230.078H390.728V228.763C389.039 225.195 386.224 224.444 382.283 226.322C378.717 228.012 377.966 230.829 380.031 234.961L380.594 235.525L380.031 236.088L379.468 235.525C376.09 233.459 373.275 234.022 370.647 237.779C368.395 241.159 368.958 243.789 372.336 246.043L372.899 246.606L372.336 247.17C367.645 246.794 365.58 248.672 366.143 252.429C365.768 256.185 367.645 258.439 371.961 259.19L374.213 265.764C392.042 300.51 420.567 323.612 459.79 335.069" stroke="#2E2E33" stroke-width="2.4502" stroke-miterlimit="10"/>
<path d="M516.467 472.928C522.472 470.486 527.539 465.415 532.418 461.095C550.998 444.567 568.639 425.222 579.523 402.871C595.1 370.567 595.663 333.566 581.963 300.886C585.154 298.069 588.156 295.063 590.971 291.871C592.473 292.434 594.162 292.81 595.851 292.81C603.17 292.81 609.175 286.799 609.175 279.474C609.175 275.906 607.674 272.525 605.422 270.084C606.548 267.642 607.674 265.388 608.612 262.759C609.363 262.946 610.114 262.946 610.864 262.946C618.183 262.946 624.189 256.936 624.189 249.611C624.189 243.601 620.248 238.53 614.805 236.84C614.993 235.525 614.993 234.21 615.181 233.083C615.744 233.083 616.307 233.271 616.87 233.271C624.189 233.271 630.194 227.261 630.194 219.936C630.194 212.611 624.189 206.601 616.87 206.601C615.556 206.601 614.43 206.789 613.304 207.164C612.929 205.662 612.741 204.347 612.366 202.844C617.62 200.966 621.374 196.083 621.374 190.261C621.374 182.936 615.368 176.925 608.049 176.925C605.985 176.925 603.921 177.489 602.232 178.24C601.481 177.113 600.918 175.986 600.167 174.859C603.921 172.418 606.548 168.286 606.548 163.402C606.548 156.077 600.543 150.067 593.223 150.067C589.282 150.067 585.717 151.945 583.277 154.575C581.963 153.448 580.837 152.321 579.523 151.382C581.588 148.94 582.902 145.935 582.902 142.555C582.902 135.23 576.896 129.219 569.577 129.219C563.947 129.219 559.255 132.6 557.191 137.671C555.877 137.108 554.376 136.544 553.062 135.981C553.25 135.23 553.25 134.478 553.25 133.727C553.25 126.402 547.244 120.392 539.925 120.392C533.92 120.392 528.853 124.336 527.164 129.783C525.662 129.595 524.161 129.595 522.66 129.407C520.783 124.148 515.904 120.392 510.086 120.392C503.517 120.392 498.075 125.275 496.949 131.473C452.659 140.864 419.441 180.306 419.441 227.449C419.441 257.312 432.766 283.982 453.785 302.013C436.895 324.927 428.637 368.125 429.388 391.227C431.265 453.958 464.107 511.806 499.764 563.644C517.03 558.385 534.483 551.248 551.748 545.989C551.561 509.74 550.435 482.694 550.059 446.258" fill="white"/>
<path d="M516.467 472.928C522.472 470.486 527.539 465.415 532.418 461.095C550.998 444.567 568.639 425.222 579.524 402.871C595.1 370.567 595.663 333.566 581.963 300.886C585.154 298.069 588.156 295.063 590.971 291.871C592.473 292.434 594.162 292.81 595.851 292.81C603.17 292.81 609.175 286.799 609.175 279.474C609.175 275.906 607.674 272.525 605.422 270.084C606.548 267.642 607.674 265.388 608.612 262.759C609.363 262.946 610.114 262.946 610.864 262.946C618.183 262.946 624.189 256.936 624.189 249.611C624.189 243.601 620.248 238.53 614.805 236.84C614.993 235.525 614.993 234.21 615.181 233.083C615.744 233.083 616.307 233.271 616.87 233.271C624.189 233.271 630.194 227.261 630.194 219.936C630.194 212.611 624.189 206.601 616.87 206.601C615.556 206.601 614.43 206.789 613.304 207.164C612.929 205.662 612.741 204.347 612.366 202.844C617.62 200.966 621.374 196.083 621.374 190.261C621.374 182.936 615.368 176.925 608.049 176.925C605.985 176.925 603.921 177.489 602.232 178.24C601.481 177.113 600.918 175.986 600.167 174.859C603.921 172.418 606.548 168.286 606.548 163.402C606.548 156.077 600.543 150.067 593.223 150.067C589.282 150.067 585.717 151.945 583.277 154.575C581.963 153.448 580.837 152.321 579.524 151.382C581.588 148.94 582.902 145.935 582.902 142.555C582.902 135.23 576.896 129.219 569.577 129.219C563.947 129.219 559.255 132.6 557.191 137.671C555.877 137.108 554.376 136.544 553.062 135.981C553.25 135.23 553.25 134.478 553.25 133.727C553.25 126.402 547.244 120.392 539.925 120.392C533.92 120.392 528.853 124.336 527.164 129.783C525.662 129.595 524.161 129.595 522.66 129.407C520.783 124.148 515.904 120.392 510.086 120.392C503.517 120.392 498.075 125.275 496.949 131.473C452.659 140.864 419.441 180.306 419.441 227.449C419.441 257.312 432.766 283.982 453.785 302.013C436.895 324.927 428.637 368.125 429.388 391.227C431.265 453.958 464.107 511.806 499.764 563.644C517.03 558.385 534.483 551.248 551.748 545.989C551.561 509.74 550.435 482.694 550.059 446.258" stroke="#2E2E33" stroke-width="2.4502" stroke-miterlimit="10"/>
<path d="M486.439 330.749C471.426 328.12 456.6 322.673 442.149 314.409L434.267 312.155L434.455 311.404C434.642 306.896 432.578 305.018 428.449 305.581C424.508 305.581 422.444 307.647 422.631 311.404L421.505 311.967C419.253 307.835 416.438 307.084 412.873 309.526C409.87 312.155 409.307 314.972 411.184 318.353L411.747 319.292L410.808 319.856L410.245 318.729C406.867 316.663 404.052 317.602 401.8 321.358C399.736 324.739 400.674 327.556 404.615 329.81L405.366 329.998L405.178 330.749L404.427 330.561C400.486 330.561 398.422 332.815 398.234 337.323C398.234 341.267 400.111 343.333 404.052 343.333L404.803 343.521L404.615 344.272C400.486 346.526 399.736 349.155 402.363 351.973C404.24 355.353 407.055 356.292 410.996 354.414L416.438 358.734C450.407 378.079 486.814 381.836 525.85 370.003" fill="white"/>
<path d="M486.439 330.749C471.426 328.12 456.6 322.673 442.149 314.409L434.267 312.155L434.455 311.404C434.642 306.896 432.578 305.018 428.449 305.581C424.508 305.581 422.444 307.647 422.631 311.404L421.505 311.967C419.253 307.835 416.438 307.084 412.873 309.526C409.87 312.155 409.307 314.972 411.184 318.353L411.747 319.292L410.808 319.856L410.245 318.729C406.867 316.663 404.052 317.602 401.8 321.358C399.736 324.739 400.674 327.556 404.615 329.81L405.366 329.998L405.178 330.749L404.427 330.561C400.486 330.561 398.422 332.815 398.234 337.323C398.234 341.267 400.111 343.333 404.052 343.333L404.803 343.521L404.615 344.272C400.486 346.526 399.736 349.155 402.363 351.973C404.24 355.353 407.055 356.292 410.996 354.414L416.438 358.734C450.407 378.079 486.814 381.836 525.85 370.003" stroke="#2E2E33" stroke-width="2.4502" stroke-miterlimit="10"/>
<path d="M433.142 204.535C434.268 206.413 435.582 209.606 435.957 213.174L435.769 213.738C435.581 217.87 433.892 221.063 430.514 223.317C426.198 226.134 422.257 226.885 418.879 225.57C418.879 222.941 419.067 220.312 419.254 217.87C421.319 219.56 423.946 219.56 426.761 217.682C429.951 215.616 430.514 212.799 428.075 209.042C426.386 205.662 424.134 204.535 421.319 205.662C421.882 203.408 422.445 200.966 423.195 198.9C423.946 198.9 424.697 198.712 425.447 198.9C428.825 199.464 431.265 201.717 433.142 204.535Z" fill="white" stroke="#2E2E33" stroke-width="1.2251" stroke-miterlimit="10"/>
<path d="M435.206 214.677C454.911 212.987 504.644 212.423 504.644 212.423L435.206 214.677Z" fill="white"/>
<path d="M435.206 214.677C454.911 212.987 504.644 212.423 504.644 212.423" stroke="#2E2E33" stroke-width="1.2251" stroke-miterlimit="10"/>
<path d="M509.147 203.408C486.627 205.286 455.098 203.971 432.578 205.849L509.147 203.408Z" fill="white"/>
<path d="M509.147 203.408C486.627 205.286 455.098 203.971 432.578 205.849" stroke="#2E2E33" stroke-width="1.2251" stroke-miterlimit="10"/>
<path d="M495.448 213.362C495.26 207.728 499.389 202.281 505.019 201.342C510.836 200.215 516.842 203.971 519.282 209.418C521.534 214.865 520.408 221.438 517.03 226.134C513.652 230.829 508.209 234.022 502.579 235.525" fill="white"/>
<path d="M495.448 213.362C495.26 207.728 499.389 202.281 505.019 201.342C510.836 200.215 516.842 203.971 519.282 209.418C521.534 214.865 520.408 221.438 517.03 226.134C513.652 230.829 508.209 234.022 502.579 235.525" stroke="#2E2E33" stroke-width="1.2251" stroke-miterlimit="10"/>
<path d="M502.955 216.931C502.016 216.555 502.392 215.053 503.33 214.865C504.268 214.677 505.207 215.428 505.582 216.18C506.333 217.682 506.145 219.748 505.019 220.875C503.893 222.002 502.016 222.565 500.327 222.002" fill="white"/>
<path d="M502.955 216.931C502.016 216.555 502.392 215.053 503.33 214.865C504.268 214.677 505.207 215.428 505.582 216.18C506.333 217.682 506.145 219.748 505.019 220.875C503.893 222.002 502.016 222.565 500.327 222.002" stroke="#2E2E33" stroke-width="1.2251" stroke-miterlimit="10"/>
<path d="M474.992 419.963C463.356 432.735 451.533 445.506 439.897 458.09C438.208 457.715 436.144 458.466 435.206 460.156C434.267 461.659 434.643 463.913 435.769 465.227C436.144 503.918 449.844 541.482 477.056 569.091C491.882 558.01 512.901 546.553 530.166 540.167C522.66 518.568 517.968 491.334 517.78 468.42" fill="white"/>
<path d="M474.992 419.963C463.356 432.735 451.533 445.506 439.897 458.09C438.208 457.715 436.144 458.466 435.206 460.156C434.267 461.659 434.643 463.913 435.769 465.227C436.144 503.918 449.844 541.482 477.056 569.091C491.882 558.01 512.901 546.553 530.166 540.167C522.66 518.568 517.968 491.334 517.78 468.42" stroke="#2E2E33" stroke-width="2.4502" stroke-miterlimit="10"/>
<path d="M299.52 555.193C294.078 554.254 289.011 555.568 283.568 554.817C268.555 552.939 255.793 550.685 240.78 555.568C237.777 556.507 234.586 557.822 232.522 560.452C231.396 561.766 230.833 563.644 230.645 565.335C230.082 565.147 229.519 564.771 228.956 564.584C172.468 542.797 110.725 534.533 50.4826 540.731C43.3512 541.482 36.0321 542.421 30.0267 546.365C24.0212 550.122 19.5172 557.634 21.3939 564.396C23.6459 573.035 33.7801 576.792 42.6005 578.858C103.03 593.132 164.961 591.066 225.578 579.797C230.645 578.858 236.838 576.228 236.463 571.345C237.402 571.533 238.528 571.533 239.654 571.721C264.426 573.035 289.574 570.218 313.408 563.269C313.408 563.269 301.772 555.568 299.52 555.193Z" fill="#EBEBF2"/>
<path d="M271.746 359.297C282.067 370.567 294.641 379.958 309.467 387.658L315.473 393.105L316.036 392.541C319.601 390.1 322.416 390.663 324.105 394.232C326.17 397.613 325.607 400.242 322.416 402.308L322.604 403.435C327.296 403.059 329.548 405.125 329.36 409.257C328.797 413.201 326.733 415.268 322.792 415.455H321.666V416.582H322.979C326.545 418.273 327.296 421.09 325.419 425.034C323.73 428.603 320.727 429.354 316.786 427.288L316.223 426.724L315.66 427.288L316.223 427.851C318.288 431.232 317.537 434.049 313.971 436.679C310.593 438.933 307.966 438.369 305.714 434.989L305.151 434.425L304.588 434.989C304.963 439.684 303.086 441.75 299.333 441.187C295.58 441.562 293.328 439.496 292.577 435.364L286.009 433.11C251.29 415.08 228.394 386.531 217.134 347.277" fill="white"/>
<path d="M271.746 359.297C282.067 370.567 294.641 379.958 309.467 387.658L315.473 393.105L316.036 392.541C319.601 390.1 322.416 390.663 324.105 394.232C326.17 397.613 325.607 400.242 322.416 402.308L322.604 403.435C327.296 403.059 329.548 405.125 329.36 409.257C328.797 413.201 326.733 415.268 322.792 415.455H321.666V416.582H322.979C326.545 418.273 327.296 421.09 325.419 425.034C323.73 428.603 320.727 429.354 316.786 427.288L316.223 426.724L315.66 427.288L316.223 427.851C318.288 431.232 317.537 434.049 313.971 436.679C310.593 438.933 307.966 438.369 305.714 434.989L305.151 434.425L304.588 434.989C304.963 439.684 303.086 441.75 299.333 441.187C295.58 441.562 293.328 439.496 292.577 435.364L286.009 433.11C251.29 415.08 228.394 386.531 217.134 347.277" stroke="#2E2E33" stroke-width="2" stroke-miterlimit="10"/>
<path d="M332.363 523.263C325.607 510.492 310.781 470.674 310.781 470.674C310.781 470.674 296.705 435.552 289.574 417.897C289.574 417.897 282.067 351.597 265.177 328.683C286.196 310.652 299.52 283.982 299.52 254.119C299.52 206.976 266.303 167.534 222.013 158.143C220.887 151.758 215.445 147.062 208.876 147.062C203.058 147.062 197.991 150.819 196.302 156.077C194.801 156.077 193.3 156.265 191.798 156.453C190.109 151.006 185.042 147.062 179.037 147.062C171.718 147.062 165.712 153.072 165.712 160.397C165.712 161.149 165.9 161.9 165.9 162.651C164.398 163.215 163.085 163.778 161.771 164.342C159.707 159.458 155.015 155.89 149.385 155.89C142.066 155.89 136.06 161.9 136.06 169.225C136.06 172.606 137.374 175.611 139.438 178.052C138.125 179.179 136.811 180.118 135.685 181.245C133.245 178.428 129.68 176.738 125.738 176.738C118.419 176.738 112.414 182.748 112.414 190.073C112.414 194.956 115.041 199.088 118.795 201.53C118.044 202.657 117.481 203.783 116.73 204.91C115.041 203.971 112.977 203.596 110.913 203.596C103.593 203.596 97.588 209.606 97.588 216.931C97.588 222.753 101.341 227.824 106.596 229.515C106.221 231.017 105.846 232.332 105.658 233.835C104.532 233.459 103.406 233.271 102.092 233.271C94.773 233.271 88.7676 239.281 88.7676 246.606C88.7676 253.931 94.773 259.941 102.092 259.941C102.655 259.941 103.218 259.754 103.781 259.754C103.781 261.068 103.969 262.383 104.156 263.51C98.7141 265.2 94.773 270.271 94.773 276.282C94.773 283.607 100.778 289.617 108.098 289.617C108.848 289.617 109.599 289.429 110.35 289.429C111.288 291.871 112.414 294.312 113.54 296.754C111.1 299.195 109.787 302.388 109.787 306.145C109.787 313.47 115.792 319.48 123.111 319.48C124.8 319.48 126.489 319.104 127.991 318.541C130.806 321.734 133.808 324.739 136.999 327.556C123.299 360.237 123.862 397.237 139.438 429.542C156.704 465.603 204.935 521.761 216.758 542.609L246.598 511.055L251.477 505.796C263.863 523.639 271.933 547.68 282.818 566.274C294.453 554.817 320.164 535.284 332.363 523.263Z" fill="white" stroke="#2E2E33" stroke-width="2" stroke-miterlimit="10"/>
<path d="M234.024 340.516C245.472 330.373 255.418 318.165 263.488 303.515L268.93 297.505L268.367 296.942C265.928 293.185 266.678 290.556 270.432 288.865C273.81 286.799 276.625 287.551 278.501 290.931L279.627 290.744C279.44 286.048 281.504 283.982 285.633 284.17C289.574 284.733 291.638 286.987 291.638 290.931V292.058H292.764V290.744C294.641 287.175 297.456 286.612 301.397 288.678C304.775 290.556 305.526 293.373 303.461 297.317L302.898 297.881L303.461 298.444L304.024 297.881C307.403 295.815 310.405 296.754 312.657 300.322C314.722 303.703 314.159 306.333 310.781 308.399L310.218 308.962L310.781 309.525C315.472 309.338 317.537 311.216 316.786 314.972C316.974 318.916 315.097 320.982 310.781 321.546L308.341 327.932C289.386 362.115 260.297 384.277 220.699 394.42" fill="white"/>
<path d="M234.024 340.516C245.472 330.373 255.418 318.165 263.488 303.515L268.93 297.505L268.367 296.942C265.928 293.185 266.678 290.556 270.432 288.865C273.81 286.799 276.625 287.551 278.501 290.931L279.627 290.744C279.44 286.048 281.504 283.982 285.633 284.17C289.574 284.733 291.638 286.987 291.638 290.931V292.058H292.764V290.744C294.641 287.175 297.456 286.612 301.397 288.678C304.775 290.556 305.526 293.373 303.461 297.317L302.898 297.881L303.461 298.444L304.024 297.881C307.403 295.815 310.405 296.754 312.657 300.322C314.722 303.703 314.159 306.333 310.781 308.399L310.218 308.962L310.781 309.525C315.472 309.338 317.537 311.216 316.786 314.972C316.974 318.916 315.097 320.982 310.781 321.546L308.341 327.932C289.386 362.115 260.297 384.277 220.699 394.42" stroke="#2E2E33" stroke-width="2" stroke-miterlimit="10"/>
<path d="M285.257 231.581C284.131 233.459 282.818 236.652 282.442 240.22L282.63 240.784C282.818 244.916 284.507 248.109 287.885 250.363C292.201 253.18 296.142 253.931 299.52 252.616C299.52 249.987 299.333 247.357 299.145 244.916C297.081 246.606 294.453 246.606 291.638 244.728C288.448 242.662 287.885 239.845 290.324 236.088C292.014 232.708 294.266 231.581 297.081 232.708C296.518 230.454 295.955 228.012 295.204 225.946C294.453 225.946 293.703 225.758 292.952 225.946C289.574 226.697 287.134 228.763 285.257 231.581Z" stroke="#2E2E33" stroke-miterlimit="10"/>
<path d="M283.006 241.911C263.301 240.22 213.568 239.657 213.568 239.657" stroke="#2E2E33" stroke-miterlimit="10"/>
<path d="M209.063 230.454C231.584 232.332 263.112 231.017 285.633 232.895" stroke="#2E2E33" stroke-miterlimit="10"/>
<path d="M222.763 240.596C222.951 234.961 218.822 229.515 213.192 228.576C207.375 227.449 201.369 231.205 198.929 236.652C196.677 242.099 197.803 248.672 201.181 253.368C204.56 258.251 210.002 261.256 215.632 262.759" fill="white"/>
<path d="M222.763 240.596C222.951 234.961 218.822 229.515 213.192 228.576C207.375 227.449 201.369 231.205 198.929 236.652C196.677 242.099 197.803 248.672 201.181 253.368C204.56 258.251 210.002 261.256 215.632 262.759" stroke="#2E2E33" stroke-miterlimit="10"/>
<path d="M215.256 244.165C216.195 243.789 215.82 242.286 214.881 242.099C213.943 241.911 213.004 242.662 212.629 243.413C211.878 244.916 212.066 246.982 213.192 248.109C214.318 249.236 216.195 249.799 217.884 249.236" stroke="#2E2E33" stroke-miterlimit="10"/>
<path d="M224.828 447.197C233.836 454.71 243.032 462.598 249.412 472.552C255.793 482.507 258.233 495.842 254.104 506.923C250.726 515.563 236.276 527.02 229.332 533.03C213.192 547.116 196.865 558.949 180.913 572.848C159.706 560.827 148.071 548.055 126.864 536.035C143.567 514.06 164.773 503.167 183.353 483.634" fill="white"/>
<path d="M224.828 447.197C233.836 454.71 243.032 462.598 249.412 472.552C255.793 482.507 258.233 495.842 254.104 506.923C250.726 515.563 236.276 527.02 229.332 533.03C213.192 547.116 196.865 558.949 180.913 572.848C159.706 560.827 148.071 548.055 126.864 536.035C143.567 514.06 164.774 503.167 183.353 483.634" stroke="#2E2E33" stroke-width="2.2173" stroke-miterlimit="10"/>
<path d="M115.875 501.774H88.0319C82.7136 501.774 78.4902 497.547 78.4902 492.225V484.711C78.4902 479.388 82.7136 475.162 88.0319 475.162H115.875C121.193 475.162 125.416 479.388 125.416 484.711V492.225C125.416 497.547 121.193 501.774 115.875 501.774Z" stroke="#2E2E33" stroke-width="4" stroke-miterlimit="10"/>
<path d="M165.93 578.481H47.3629C42.0446 578.481 37.8213 574.255 37.8213 568.932V497.234C37.8213 491.912 42.0446 487.685 47.3629 487.685H165.93C171.248 487.685 175.471 491.912 175.471 497.234V568.932C175.471 574.255 171.248 578.481 165.93 578.481Z" fill="#EBEBF2"/>
<path d="M161.237 583.178H42.6706C37.3523 583.178 33.1289 578.951 33.1289 573.628V501.931C33.1289 496.608 37.3523 492.382 42.6706 492.382H161.237C166.556 492.382 170.779 496.608 170.779 501.931V573.628C170.779 578.951 166.556 583.178 161.237 583.178Z" stroke="#2E2E33" stroke-width="2" stroke-miterlimit="10"/>
<path d="M164.365 545.607H39.5417C34.2234 545.607 30 541.38 30 536.058V497.234C30 491.912 34.2234 487.685 39.5417 487.685H164.365C169.684 487.685 173.907 491.912 173.907 497.234V536.058C173.907 541.38 169.684 545.607 164.365 545.607Z" fill="white" stroke="#2E2E33" stroke-miterlimit="10"/>
<path d="M108.21 537.78H98.8247C97.1041 537.78 95.6963 539.188 95.6963 540.91V547.172C95.6963 548.894 97.1041 550.303 98.8247 550.303H108.21C109.931 550.303 111.338 548.894 111.338 547.172V540.91C111.338 539.188 109.931 537.78 108.21 537.78Z" fill="#EBEBF2"/>
<path d="M106.645 539.345H97.2602C95.5396 539.345 94.1318 540.754 94.1318 542.476V548.738C94.1318 550.46 95.5396 551.869 97.2602 551.869H106.645C108.366 551.869 109.774 550.46 109.774 548.738V542.476C109.774 540.754 108.366 539.345 106.645 539.345Z" stroke="#2E2E33" stroke-miterlimit="10"/>
<path d="M633.01 335.257C632.822 334.693 632.634 333.942 632.447 333.379C632.447 333.191 632.259 332.815 632.259 332.627C632.071 332.064 631.884 331.5 631.696 330.749C631.696 330.561 631.508 330.186 631.508 329.998C631.321 329.246 631.133 328.683 630.945 327.932C630.945 327.744 630.945 327.744 630.945 327.556C630.195 324.175 630.007 321.17 630.195 318.353C630.57 314.597 631.696 311.779 633.76 310.277C637.138 308.023 650.463 298.256 656.093 294.312C656.844 292.997 657.97 292.058 659.283 291.495C660.785 290.744 663.412 290.556 666.978 292.434L715.397 258.251C716.335 256.748 717.649 255.434 719.15 254.87C728.158 250.926 742.796 265.388 752.368 287.739C762.126 310.465 762.502 330.561 753.306 334.505C751.617 335.257 749.928 335.257 748.051 334.881L690.061 346.526C689.123 350.47 687.059 352.16 685.37 352.724C684.056 353.287 682.554 353.475 681.053 353.099C674.109 354.414 657.97 357.419 654.029 358.358C651.589 358.922 648.774 357.795 645.771 355.353C643.707 353.663 641.642 351.409 639.578 348.592C639.578 348.404 639.39 348.404 639.39 348.216C639.015 347.653 638.64 347.089 638.264 346.526C638.077 346.338 638.077 346.15 637.889 345.962C637.514 345.399 637.326 344.835 636.951 344.272C636.763 344.084 636.763 343.709 636.575 343.521C636.2 342.957 636.012 342.394 635.637 341.83C635.449 341.643 635.449 341.267 635.262 341.079C634.886 340.328 634.511 339.389 634.136 338.45C633.76 337.511 633.385 336.759 633.01 335.82C633.197 335.82 633.197 335.632 633.01 335.257ZM682.179 349.719C682.179 349.719 682.179 349.907 682.179 349.719C682.554 349.719 682.93 349.719 683.117 349.719C683.117 349.719 683.117 349.719 683.305 349.719C683.681 349.719 683.868 349.531 684.244 349.531C684.994 349.155 685.557 348.404 686.12 347.653L683.68 348.216C678.613 345.775 671.67 337.698 666.415 325.114C660.972 312.531 659.846 302.013 661.723 296.566L663.788 295.063C662.849 294.876 661.911 294.688 661.16 295.063C660.972 295.251 660.597 295.439 660.409 295.627C660.222 295.815 660.034 296.003 659.846 296.378C657.031 300.51 657.782 312.343 663.788 326.241C669.23 340.328 677.3 348.967 682.179 349.719Z" fill="white" stroke="#2E2E33" stroke-miterlimit="10"/>
<path d="M681.241 376.201L691.562 400.242C693.439 404.75 691.375 410.009 686.871 411.887C682.367 413.765 677.112 411.699 675.235 407.191L664.913 383.15L655.905 362.115C659.283 361.364 667.165 360.049 673.734 358.734L681.241 376.201Z" fill="white" stroke="#2E2E33" stroke-miterlimit="10"/>
<path d="M618.934 326.429L626.629 320.982C626.441 326.241 627.943 333.003 630.945 340.14C633.948 347.277 637.889 352.912 641.83 356.48L632.634 358.358C628.318 360.049 622.5 352.912 619.122 345.211C615.932 337.511 614.806 328.495 618.934 326.429Z" fill="#EBEBF2" stroke="#2E2E33" stroke-miterlimit="10"/>
<path d="M730.035 318.916C730.035 319.104 730.223 319.104 730.223 319.292C730.598 319.856 730.973 320.419 731.536 320.982C731.724 321.17 731.724 321.358 731.912 321.546C733.226 323.048 734.352 324.363 735.665 325.678C735.853 325.866 736.041 326.054 736.228 326.241C736.604 326.617 736.791 326.805 737.167 327.18C737.354 327.368 737.73 327.556 737.917 327.744C738.293 327.932 738.48 328.307 738.856 328.495C739.419 328.871 739.794 329.246 740.169 329.434C740.357 329.622 740.545 329.622 740.92 329.81C741.295 329.998 741.483 330.186 741.858 330.373C742.046 330.561 742.234 330.561 742.421 330.749C742.797 330.937 743.172 331.125 743.547 331.125C743.735 331.125 743.735 331.312 743.923 331.312C744.298 331.5 744.861 331.5 745.236 331.688C745.424 331.688 745.424 331.688 745.612 331.688C745.987 331.688 746.175 331.688 746.55 331.688C746.738 331.688 746.738 331.688 746.925 331.688C747.301 331.688 747.676 331.5 748.051 331.5C754.057 328.871 754.432 311.028 745.049 289.617C735.853 268.205 722.716 255.997 716.711 258.627C716.335 258.814 716.148 259.002 715.772 259.19L715.585 259.378C715.397 259.566 715.209 259.753 715.022 260.129C715.022 260.317 714.834 260.317 714.834 260.505C714.646 260.88 714.459 261.256 714.083 261.632C714.083 261.82 714.083 261.82 713.896 262.007C713.708 262.383 713.52 262.759 713.52 263.134C713.52 263.322 713.333 263.51 713.333 263.698C713.333 264.073 713.145 264.449 713.145 264.637C713.145 264.825 712.957 265.2 712.957 265.388C712.77 265.952 712.77 266.515 712.77 267.078C712.77 267.454 712.77 267.83 712.77 268.205C712.77 268.581 712.77 268.769 712.77 269.144C712.77 269.52 712.77 270.084 712.77 270.459C712.77 270.647 712.77 271.023 712.77 271.21C712.77 272.901 712.957 274.779 713.145 276.657C713.145 276.845 713.145 277.033 713.145 277.221C713.145 277.972 713.333 278.535 713.52 279.287C713.52 279.474 713.52 279.474 713.52 279.662C714.646 285.86 716.523 292.81 719.901 300.51C722.716 307.647 726.469 314.033 730.035 318.916Z" fill="#EBEBF2"/>
<path d="M734.351 319.292C734.351 319.48 734.539 319.48 734.539 319.668C734.915 320.231 735.29 320.795 735.853 321.358C736.041 321.546 736.041 321.734 736.228 321.922C737.542 323.424 738.668 324.739 739.982 326.054C740.169 326.241 740.357 326.429 740.545 326.617C740.92 326.993 741.108 327.18 741.483 327.556C741.671 327.744 742.046 327.932 742.234 328.12C742.609 328.307 742.797 328.683 743.172 328.871C743.735 329.247 744.11 329.622 744.486 329.81C744.673 329.998 744.861 329.998 745.236 330.186C745.612 330.373 745.799 330.561 746.175 330.749C746.362 330.937 746.55 330.937 746.738 331.125C747.113 331.313 747.488 331.5 747.864 331.5C748.051 331.5 748.051 331.688 748.239 331.688C748.614 331.876 749.177 331.876 749.553 332.064C749.74 332.064 749.74 332.064 749.928 332.064C750.303 332.064 750.491 332.064 750.866 332.064C751.054 332.064 751.054 332.064 751.242 332.064C751.617 332.064 751.992 331.876 752.368 331.876C758.373 329.246 758.749 311.404 749.365 289.992C740.169 268.581 727.032 256.373 721.027 259.002C720.652 259.19 720.464 259.378 720.089 259.566L719.901 259.754C719.713 259.941 719.526 260.129 719.338 260.505C719.338 260.693 719.15 260.693 719.15 260.88C718.963 261.256 718.775 261.632 718.4 262.007C718.4 262.195 718.4 262.195 718.212 262.383C718.024 262.759 717.837 263.134 717.837 263.51C717.837 263.698 717.649 263.886 717.649 264.073C717.649 264.449 717.461 264.825 717.461 265.012C717.461 265.2 717.274 265.576 717.274 265.764C717.086 266.327 717.086 266.891 717.086 267.454C717.086 267.83 717.086 268.205 717.086 268.581C717.086 268.957 717.086 269.144 717.086 269.52C717.086 269.896 717.086 270.459 717.086 270.835C717.086 271.023 717.086 271.398 717.086 271.586C717.086 273.276 717.274 275.155 717.461 277.033C717.461 277.221 717.461 277.408 717.461 277.596C717.461 278.348 717.649 278.911 717.837 279.662C717.837 279.85 717.837 279.85 717.837 280.038C718.963 286.236 720.839 293.185 724.217 300.886C726.845 307.835 730.598 314.221 734.351 319.292Z" stroke="#2E2E33" stroke-miterlimit="10"/>
<path d="M176.784 85.082L90.6441 117.199C85.577 119.077 80.1346 116.448 78.2579 111.564L60.0539 62.7315C58.1772 57.6604 60.8046 52.2137 65.684 50.3355L151.824 18.2184C156.891 16.3403 162.334 18.9697 164.211 23.853L182.414 72.4981C184.291 77.5692 181.664 83.2038 176.784 85.082Z" fill="white" stroke="#2E2E33" stroke-miterlimit="10"/>
<path d="M182.978 80.5743C182.227 82.2647 180.726 83.5794 179.037 84.1429L88.5801 117.95C86.7034 118.702 84.8267 118.514 83.1377 117.762L117.294 56.9091L182.978 80.5743Z" fill="white" stroke="#2E2E33" stroke-miterlimit="10"/>
<path d="M162.146 16.5281L127.99 77.3814L62.3057 53.7162C63.0563 52.0258 64.5577 50.7111 66.2467 50.1476L156.703 16.5281C158.58 15.7768 160.457 15.7768 162.146 16.5281Z" fill="#EBEBF2"/>
<path d="M159.519 17.4672L125.176 78.3205L59.4912 54.6553C60.2419 52.9649 61.7432 51.6502 63.4323 51.0867L154.077 17.4672C155.766 16.7159 157.83 16.9037 159.519 17.4672Z" stroke="#2E2E33" stroke-miterlimit="10"/>
<path d="M73 228.4H35.2C32.3 228.4 30 226.1 30 223.2V185.2C30 182.3 32.3 180 35.2 180H73C75.9 180 78.2 182.3 78.2 185.2V223.2C78.2 226.1 75.8 228.4 73 228.4Z" fill="white" stroke="#2E2E33" stroke-miterlimit="10"/>
<path fill-rule="evenodd" clip-rule="evenodd" d="M56.7773 190.452H59.9301L51.6401 214.116H48.4874L56.7773 190.452ZM57.4866 191.452L49.8973 213.116H50.9309L58.5202 191.452H57.4866ZM48.7533 196.761V199.836L41.1009 202.789L48.7533 205.742V208.817L36.9746 204.164V201.414L48.7533 196.761ZM59.4364 196.761L71.2151 201.414V204.164L59.4364 208.817V205.742L67.1094 202.789L59.4364 199.836V196.761ZM37.9746 202.095V203.484L47.7533 207.347V206.428L38.3234 202.789L47.7533 199.15V198.231L37.9746 202.095ZM60.4364 198.231V199.15L69.8937 202.789L60.4364 206.429V207.347L70.2151 203.484V202.095L60.4364 198.231Z" fill="#2E2E33"/>
<path d="M670.119 506.682L626.794 486.253C623.538 484.718 622.061 480.816 623.639 477.469L644.196 433.872C645.731 430.616 649.634 429.14 652.98 430.718L696.306 451.147C699.562 452.682 701.038 456.584 699.46 459.931L678.903 503.528C677.235 506.832 673.375 508.218 670.119 506.682Z" fill="#EBEBF2" stroke="#2E2E33" stroke-miterlimit="10"/>
<path fill-rule="evenodd" clip-rule="evenodd" d="M674.126 461.776C672.531 461.024 671.114 460.652 669.867 460.63C668.605 460.607 667.563 460.864 666.717 461.372C665.881 461.895 665.24 462.622 664.794 463.568C664.25 464.721 664.131 465.727 664.369 466.613C664.652 467.558 665.125 468.381 665.787 469.087C666.502 469.839 667.495 470.728 668.774 471.755C669.806 472.58 670.597 473.261 671.136 473.795C671.72 474.362 672.145 474.994 672.398 475.693C672.703 476.447 672.655 477.228 672.291 477.998C671.791 479.059 670.907 479.694 669.708 479.898L669.701 479.9C668.513 480.082 667.082 479.738 665.447 478.966C664.181 478.37 663.044 477.575 662.036 476.585L662.029 476.579C661.236 475.769 660.61 474.932 660.16 474.067L658.913 475.091C659.335 475.984 660.02 476.903 660.99 477.845C662.103 478.891 663.362 479.745 664.767 480.407C666.362 481.159 667.786 481.546 669.047 481.594C670.328 481.624 671.376 481.371 672.219 480.864C673.086 480.329 673.734 479.605 674.169 478.681C674.703 477.549 674.804 476.56 674.543 475.685L674.541 475.678C674.275 474.742 673.812 473.924 673.149 473.216C672.453 472.475 671.471 471.592 670.193 470.565C669.187 469.774 668.394 469.104 667.82 468.555L667.814 468.55L667.808 468.543C667.238 467.961 666.808 467.33 666.53 466.65L666.526 466.639C666.23 465.869 666.281 465.081 666.646 464.307C667.143 463.251 668.015 462.603 669.201 462.368L669.206 462.367C670.415 462.142 671.841 462.459 673.446 463.217C674.376 463.655 675.251 464.245 676.073 464.983C676.758 465.576 677.361 466.242 677.882 466.979L679.1 465.87C678.62 465.127 677.981 464.415 677.175 463.734C676.243 462.948 675.227 462.295 674.126 461.776ZM669.885 459.63C671.314 459.655 672.873 460.079 674.552 460.871C675.732 461.428 676.822 462.127 677.82 462.97C678.822 463.816 679.61 464.729 680.175 465.713L680.375 466.061L677.686 468.511L677.367 468.007C676.826 467.152 676.176 466.395 675.415 465.736L675.408 465.73C674.651 465.05 673.855 464.515 673.02 464.121C671.5 463.404 670.303 463.181 669.392 463.35C668.496 463.528 667.902 463.987 667.55 464.733C667.292 465.282 667.271 465.785 667.457 466.276C667.68 466.817 668.029 467.338 668.517 467.838C669.058 468.354 669.821 469.001 670.813 469.78L670.817 469.783C672.114 470.826 673.138 471.742 673.878 472.532C674.65 473.356 675.193 474.314 675.502 475.402C675.85 476.568 675.684 477.813 675.073 479.108C674.555 480.207 673.775 481.08 672.742 481.717L672.737 481.72C671.697 482.346 670.449 482.628 669.019 482.594L669.013 482.594C667.579 482.54 666.019 482.103 664.341 481.312C662.841 480.605 661.494 479.691 660.302 478.571L660.296 478.565C659.136 477.44 658.307 476.296 657.84 475.131L657.703 474.79L660.541 472.461L660.801 473.08C661.194 474.018 661.835 474.951 662.74 475.875C663.668 476.786 664.712 477.514 665.873 478.062C667.436 478.799 668.647 479.049 669.545 478.912C670.446 478.757 671.037 478.312 671.387 477.572C671.646 477.021 671.66 476.53 671.469 476.062L671.464 476.051L671.461 476.041C671.266 475.5 670.931 474.989 670.438 474.51L670.435 474.507C669.932 474.01 669.173 473.354 668.149 472.535L668.148 472.534C666.85 471.492 665.819 470.572 665.061 469.775L665.059 469.773C664.287 468.949 663.736 467.988 663.409 466.894L663.405 466.881C663.088 465.707 663.272 464.451 663.889 463.142C664.414 462.029 665.182 461.151 666.191 460.521L666.198 460.517C667.237 459.892 668.474 459.605 669.885 459.63ZM652.564 450.773L663.181 455.779L656.788 469.339C655.75 471.539 654.399 473.029 652.694 473.692C651.012 474.347 649.113 474.132 647.048 473.158C645.824 472.581 644.8 471.789 643.982 470.781L643.978 470.775C643.168 469.746 642.657 468.601 642.452 467.345L642.39 466.966L645.815 465.421L645.924 466.058C646.248 467.955 647.146 469.198 648.593 469.88C649.582 470.346 650.397 470.367 651.093 470.044L651.1 470.04C651.832 469.714 652.507 468.992 653.086 467.762L657.987 457.37L651.005 454.078L652.564 450.773ZM653.042 452.104L652.336 453.6L659.318 456.892L653.991 468.189C653.357 469.533 652.543 470.491 651.511 470.952C650.48 471.43 649.347 471.341 648.166 470.785C646.554 470.024 645.528 468.691 645.069 466.854L643.511 467.557C643.721 468.494 644.136 469.358 644.761 470.154C645.479 471.038 646.381 471.738 647.474 472.253C649.382 473.153 650.985 473.284 652.332 472.76C653.712 472.223 654.908 470.98 655.883 468.912L661.85 456.257L653.042 452.104Z" fill="#2E2E33"/>
</g>
<defs>
<clipPath id="clip0_40_77">
<rect width="761" height="589" fill="white"/>
</clipPath>
</defs>
</svg>
