<svg width="41" height="40" viewBox="0 0 41 40" fill="none" xmlns="http://www.w3.org/2000/svg">
<path d="M8.60023 6.11998L9.04023 7.15998L11.5202 12.96C11.8002 12.68 12.3202 12.48 13.0002 12.44C13.5602 12.52 14.1202 12.76 14.6002 13.2C15.0802 13.64 15.3602 14.12 15.4802 14.64L19.2002 14.68C19.4402 13.44 20.0802 12.44 21.0802 11.64C22.1202 10.84 23.2402 10.48 24.5202 10.48C25.2002 10.44 25.9202 10.56 26.6802 10.92L31.8002 6.23998C31.9602 5.67998 31.8002 5.11998 31.3202 4.63998C30.6402 3.99998 29.9602 3.91998 29.2402 4.35998L28.8402 4.15998C29.0802 3.23998 28.8002 2.55998 28.0802 2.15998C27.2802 1.71998 26.5602 1.79998 25.8802 2.39998L25.6002 2.19998C25.5202 1.35998 25.0402 0.839977 24.2002 0.599977C23.5202 0.359977 22.8402 0.559977 22.2402 1.23998H21.7602C21.6002 0.439977 21.0402 0.0399774 20.1602 0.0399774C19.3602 -2.26196e-05 18.7602 0.359977 18.4002 1.19998H17.9202C17.4802 0.559977 16.8402 0.319977 15.9602 0.479977C15.1602 0.679977 14.7202 1.15998 14.6802 1.95998L14.2002 2.15998C13.5602 1.63998 12.9202 1.55998 12.2002 1.99998C11.4802 2.43998 11.1602 2.99998 11.2002 3.75998L10.8002 3.99998C10.0802 3.67998 9.44023 3.79998 8.88023 4.39998C8.48023 4.71998 8.28023 5.03998 8.24023 5.43998L8.60023 6.11998Z" fill="#2E2E33"/>
<path d="M39.8401 36.92L39.7201 36.88L39.8401 35.92C39.9601 30.68 37.7601 26 33.2401 21.84C33.8001 20.76 34.2401 19.32 34.5601 17.44C35.2801 17.24 35.6801 16.72 35.7601 15.8C35.7601 14.96 35.3201 14.36 34.5201 14.04L34.4801 13.68C35.2801 13.2 35.5201 12.56 35.2001 11.72C34.9601 10.84 34.4401 10.4 33.6001 10.4L33.4801 10.04C34.0401 9.35999 34.0801 8.63999 33.6801 7.95999C33.3601 7.43999 32.9201 7.11999 32.3201 7.03999L27.6001 11.36C29.2001 12.52 29.9601 14 29.9601 15.88C29.9601 17.32 29.4401 18.56 28.3201 19.64C27.2401 20.64 25.9601 21.12 24.4801 21.04C23.0001 21.04 21.7201 20.52 20.7201 19.52C19.6801 18.52 19.1601 17.24 19.1601 15.76L15.4401 15.72C15.1201 16.92 14.3201 17.56 12.9601 17.56C12.2001 17.52 11.6001 17.28 11.1201 16.76C10.5601 16.24 10.3201 15.64 10.3201 14.96C10.3201 14.36 10.4801 13.92 10.7601 13.6L7.88008 6.67999C7.20008 6.67999 6.68008 6.95999 6.32008 7.51999C5.92008 8.15999 5.96008 8.79999 6.40008 9.43999L6.16008 9.99999C5.36008 10.16 4.88008 10.6 4.72008 11.32C4.52008 12.12 4.72008 12.72 5.24008 13.16L5.08008 13.8C4.40008 14.08 4.12008 14.6 4.16008 15.36C4.12008 16.12 4.44008 16.64 5.08008 16.96C5.16008 18.64 5.64008 20.28 6.44008 21.92C2.40008 25.64 0.360077 30.12 0.320077 35.4L0.440077 36.32C-0.0399227 36.64 -0.119923 37.04 0.160077 37.48C0.320077 37.96 0.680078 38.08 1.20008 37.76L1.32008 37.8L1.28008 37.92C1.00008 38.4 1.12008 38.76 1.56008 39C2.08008 39.28 2.48008 39.2 2.76008 38.72L2.80008 38.6L2.92008 38.64L2.88008 38.76C2.88008 39.36 3.16008 39.64 3.68008 39.64C4.28008 39.64 4.56008 39.36 4.56008 38.84L4.48008 38.68L4.64008 38.6L4.72008 38.72C4.96008 39.16 5.36008 39.32 5.84008 39.12C6.36008 38.88 6.44008 38.48 6.12008 37.96L6.04008 37.84L6.24008 37.88C6.68008 38.16 7.04008 38.04 7.32008 37.6C7.64008 37.16 7.56008 36.8 7.04008 36.52L6.92008 36.48L7.20008 35.44C7.24008 33.2 7.60008 31.12 8.32008 29.2C8.40008 30.36 8.72008 32.04 9.28008 34.28C9.72008 36.36 9.96008 38.52 9.96008 40H19.5201L20.1201 32.04L20.6401 40H30.2001C30.2001 38.44 30.4801 36.6 31.0001 34.56C31.6001 32.16 31.9601 30.44 32.0801 29.4C32.8001 31.4 33.1201 33.52 33.0801 35.76L33.2801 36.72L33.1201 36.8C32.6401 36.96 32.5201 37.32 32.8801 37.84C33.2001 38.36 33.5601 38.48 34.0401 38.12L34.1201 38.24C33.8001 38.6 33.8801 39 34.4001 39.44C34.8401 39.72 35.2401 39.6 35.5201 39.04L35.6401 39.08L35.5201 39.2C35.5601 39.72 35.8401 40 36.4401 40C36.9601 40 37.2401 39.72 37.2001 39.2L37.2401 39.08L37.3601 39.12V39.2C37.6801 39.76 38.0401 39.84 38.5201 39.48C39.0401 39.24 39.1201 38.84 38.8001 38.32L38.8401 38.2L38.9201 38.36C39.4401 38.64 39.8401 38.52 40.1201 37.96C40.4001 37.56 40.2801 37.2 39.8401 36.92Z" fill="#2E2E33"/>
<path d="M13.0001 13.32C12.7201 13.32 12.2801 13.44 11.8401 13.64L11.8001 13.68C11.3601 14 11.1201 14.44 11.1201 14.96C11.1201 16.16 11.7201 16.76 12.9201 16.76C14.1201 16.84 14.7201 16.24 14.7201 14.96C14.6801 14.48 14.5201 14.08 14.2801 13.68C13.8801 13.4 13.4801 13.32 13.0001 13.32ZM12.9201 15.88C12.3201 15.88 12.0401 15.56 12.0401 14.96C12.0401 14.44 12.3201 14.16 12.9201 14.16C13.5201 14.08 13.8401 14.36 13.8401 14.96C13.8401 15.6 13.5201 15.88 12.9201 15.88Z" fill="#2E2E33"/>
<path d="M21.8403 13.16C21.1603 13.8 20.8003 14.64 20.7603 15.68C20.8003 16.76 21.1603 17.64 21.8803 18.36C22.6003 19.08 23.4803 19.44 24.4402 19.44C25.4802 19.4 26.4002 19.04 27.2002 18.36C27.8802 17.68 28.2802 16.84 28.2802 15.8C28.3202 14.84 27.9602 13.96 27.2402 13.2C26.5202 12.48 25.6402 12.12 24.6002 12.08C23.5203 12.12 22.6003 12.48 21.8403 13.16ZM27.3602 15.8C27.3202 16.6 27.0402 17.28 26.5202 17.84C25.9202 18.36 25.2802 18.6 24.5202 18.6C23.6803 18.56 23.0003 18.24 22.4803 17.76C21.9603 17.16 21.6803 16.48 21.6403 15.72C21.6803 15 22.0003 14.32 22.6003 13.72C23.2003 13.2 23.8403 12.92 24.6002 12.96C25.4002 13.04 26.0802 13.32 26.6402 13.8C27.1602 14.4 27.4002 15.08 27.3602 15.8Z" fill="#2E2E33"/>
</svg>
