<svg width="94" height="40" viewBox="0 0 94 40" fill="none" xmlns="http://www.w3.org/2000/svg">
<path d="M7.64015 18.72H18.7601V22.48H1.28015V19.76L12.2801 3.8H1.16016V0H18.5601V2.68L7.64015 18.72Z" fill="#2E2E33"/>
<path d="M47.24 0V15.56C47.2 17.88 46.44 19.68 44.92 20.92C43.4 22.16 41.24 22.8 38.4 22.8C35.52 22.8 33.32 22.16 31.8 20.92C30.28 19.68 29.52 17.84 29.52 15.48V0H35V15.48C35 16.76 35.24 17.68 35.76 18.2C36.24 18.76 37.16 19 38.44 19C39.72 19 40.64 18.72 41.12 18.2C41.6 17.68 41.84 16.76 41.88 15.52V0H47.24Z" fill="#2E2E33"/>
<path d="M58.9199 22.48V0H67.2399C70.0399 0 72.1999 0.52 73.6399 1.56C75.1199 2.6 75.8399 4.12 75.8399 6.16C75.8399 7.32 75.5199 8.28 74.9199 9.12C74.3199 9.96 73.4799 10.56 72.4399 10.92C73.6399 11.2 74.5999 11.8 75.2399 12.64C75.8799 13.52 76.2399 14.6 76.2399 15.88C76.2399 18.08 75.5199 19.72 74.0799 20.84C72.6399 21.96 70.5599 22.52 67.8399 22.52H58.9199V22.48ZM64.3999 9.4H67.2399C69.3599 9.4 70.4399 8.48 70.4399 6.64C70.4399 5.64 70.1999 4.88 69.6799 4.44C69.1999 4 68.3999 3.76 67.2799 3.76H64.3999V9.4ZM64.3999 12.72V18.72H67.8799C68.8399 18.72 69.5999 18.48 70.1199 17.96C70.6399 17.44 70.8799 16.72 70.8799 15.8C70.8799 13.8 69.9999 12.76 68.2399 12.68H64.3999V12.72Z" fill="#2E2E33"/>
<path d="M93.48 22.48H88.04V0H93.48V22.48Z" fill="#2E2E33"/>
<path d="M6.60013 37.16C6.60013 36.68 6.44013 36.36 6.12013 36.08C5.80013 35.84 5.20013 35.56 4.36013 35.32C3.52013 35.08 2.84013 34.8 2.36014 34.48C1.40014 33.88 0.920138 33.08 0.920138 32.12C0.920138 31.28 1.28014 30.56 1.96014 30.04C2.64014 29.48 3.56014 29.2 4.64013 29.2C5.36013 29.2 6.00013 29.32 6.60013 29.6C7.16013 29.88 7.64012 30.24 7.96012 30.76C8.28012 31.24 8.44013 31.8 8.44013 32.4H6.64013C6.64013 31.84 6.48013 31.44 6.12013 31.12C5.76013 30.8 5.28013 30.64 4.64013 30.64C4.04013 30.64 3.60014 30.76 3.24014 31.04C2.92014 31.28 2.76013 31.64 2.76013 32.12C2.76013 32.52 2.92013 32.84 3.28013 33.08C3.64013 33.32 4.24013 33.6 5.04013 33.84C5.84013 34.08 6.52013 34.36 7.00013 34.68C7.48013 35 7.84013 35.36 8.08013 35.76C8.32012 36.16 8.44013 36.64 8.44013 37.16C8.44013 38.04 8.12013 38.72 7.44013 39.24C6.76013 39.76 5.88013 40 4.72013 40.04C3.96013 40.04 3.28013 39.92 2.64013 39.64C2.00013 39.36 1.52014 38.96 1.16014 38.48C0.800138 38 0.640137 37.4 0.640137 36.76H2.48013C2.48013 37.36 2.68013 37.8 3.08013 38.16C3.48013 38.48 4.04013 38.64 4.76013 38.64C5.40013 38.64 5.88013 38.52 6.20013 38.24C6.44013 37.92 6.60013 37.56 6.60013 37.16Z" fill="#2E2E33"/>
<path d="M20.2801 34.84C20.2801 35.88 20.1201 36.76 19.7601 37.56C19.4001 38.32 18.8801 38.92 18.2401 39.36C17.6001 39.76 16.8401 40 15.9601 40C15.1201 40 14.3601 39.8 13.6801 39.4C13.0001 39 12.4801 38.4 12.1201 37.64C11.7601 36.88 11.5601 36 11.5601 35V34.4C11.5601 33.36 11.7201 32.48 12.0801 31.68C12.4401 30.88 12.9601 30.28 13.6001 29.88C14.2401 29.48 15.0001 29.24 15.8801 29.24C16.7601 29.24 17.4801 29.44 18.1601 29.84C18.8401 30.24 19.3201 30.84 19.6801 31.6C20.0401 32.36 20.2401 33.28 20.2401 34.28L20.2801 34.84ZM18.4401 34.32C18.4401 33.16 18.2001 32.28 17.7601 31.64C17.3201 31.04 16.6801 30.72 15.8801 30.72C15.0801 30.72 14.4801 31.04 14.0401 31.64C13.6001 32.24 13.3601 33.12 13.3601 34.28V34.88C13.3601 36.04 13.6001 36.92 14.0401 37.56C14.4801 38.2 15.1201 38.52 15.9201 38.52C16.7201 38.52 17.3601 38.2 17.7601 37.6C18.2001 37 18.4001 36.08 18.4001 34.92L18.4401 34.32Z" fill="#2E2E33"/>
<path d="M25.84 38.36H30.6V39.8H24V29.32H25.84V38.36Z" fill="#2E2E33"/>
<path d="M41.4 29.28V36.28C41.4 37.4 41.04 38.28 40.32 38.92C39.6 39.56 38.64 39.92 37.48 39.92C36.28 39.92 35.32 39.6 34.6 38.96C33.88 38.32 33.52 37.44 33.52 36.28V29.28H35.32V36.32C35.32 37.04 35.52 37.56 35.84 37.92C36.2 38.28 36.72 38.48 37.4 38.48C38.8 38.48 39.52 37.72 39.48 36.24V29.28H41.4Z" fill="#2E2E33"/>
<path d="M52.84 30.72H49.56V39.76H47.76V30.72H44.52V29.24H52.84V30.72Z" fill="#2E2E33"/>
<path d="M58.0802 39.76H56.2802L56.2402 29.28H58.0402L58.0802 39.76Z" fill="#2E2E33"/>
<path d="M70.5603 34.76C70.5603 35.8 70.4003 36.68 70.0403 37.48C69.6803 38.24 69.2003 38.84 68.5203 39.28C67.8403 39.68 67.1203 39.92 66.2403 39.92C65.4003 39.92 64.6403 39.72 63.9603 39.32C63.2803 38.92 62.7603 38.32 62.4003 37.56C62.0403 36.8 61.8403 35.92 61.8403 34.92V34.32C61.8403 33.28 62.0003 32.4 62.3603 31.6C62.7203 30.8 63.2403 30.2 63.8803 29.8C64.5203 29.4 65.2803 29.16 66.1603 29.16C67.0003 29.16 67.7603 29.36 68.4403 29.76C69.1203 30.16 69.6003 30.76 69.9603 31.52C70.3203 32.28 70.5203 33.2 70.5203 34.2L70.5603 34.76ZM68.7603 34.2C68.7603 33.04 68.5203 32.16 68.0803 31.52C67.6403 30.92 67.0003 30.6 66.2003 30.6C65.4003 30.6 64.8003 30.92 64.3603 31.52C63.9203 32.12 63.6803 33 63.6803 34.16V34.76C63.6803 35.92 63.9203 36.8 64.3603 37.44C64.8003 38.08 65.4403 38.4 66.2403 38.4C67.0403 38.4 67.6803 38.08 68.0803 37.48C68.5203 36.88 68.7203 35.96 68.7203 34.8L68.7603 34.2Z" fill="#2E2E33"/>
<path d="M82.6403 39.68H80.8003L76.1203 32.24V39.68H74.2803V29.2H76.1203L80.8403 36.68V29.2H82.6403V39.68Z" fill="#2E2E33"/>
<path d="M92.1602 36.96C92.1602 36.48 92.0002 36.16 91.6802 35.88C91.3602 35.64 90.7602 35.36 89.9202 35.12C89.0802 34.88 88.4002 34.6 87.9202 34.28C86.9602 33.68 86.4802 32.88 86.4802 31.92C86.4802 31.08 86.8402 30.36 87.5202 29.84C88.2002 29.28 89.0802 29 90.2002 29C90.9202 29 91.6002 29.12 92.1602 29.4C92.7202 29.68 93.2002 30.04 93.5202 30.56C93.8402 31.04 94.0002 31.6 94.0002 32.2H92.2002C92.2002 31.64 92.0402 31.24 91.6802 30.92C91.3202 30.6 90.8402 30.44 90.2002 30.44C89.6002 30.44 89.1602 30.56 88.8002 30.84C88.4802 31.08 88.3202 31.44 88.3202 31.92C88.3202 32.32 88.4802 32.64 88.8402 32.88C89.2002 33.12 89.8002 33.4 90.6002 33.64C91.4002 33.88 92.0802 34.16 92.5602 34.48C93.0402 34.8 93.4002 35.16 93.6402 35.56C93.8802 35.96 94.0002 36.44 94.0002 36.96C94.0002 37.84 93.6802 38.52 93.0002 39.04C92.3202 39.56 91.4402 39.8 90.2802 39.8C89.5202 39.8 88.8402 39.68 88.2002 39.4C87.5602 39.12 87.0802 38.72 86.7202 38.24C86.3602 37.76 86.2002 37.16 86.2002 36.52H88.0402C88.0402 37.12 88.2402 37.56 88.6402 37.92C89.0402 38.28 89.6002 38.4 90.3202 38.4C90.9602 38.4 91.4402 38.28 91.7602 38C92.0402 37.72 92.1602 37.4 92.1602 36.96Z" fill="#2E2E33"/>
</svg>
